# xmcd
#
# Track frame offsets:
#	150
#	13414
#	24339
#	39718
#	54813
#	71361
#	89299
#	104289
#	116777
#	137962
#	154438
#	168598
#	183201
#
# Disc length: 2654 seconds
#
# Revision: 1
# Processed by: cddbd v1.5.2PL0 Copyright (c) Steve Scherf et al.
# Submitted via: EasyCDDAExtractor 15.2.5.1
#
DISCID=ae0a5c0d
DTITLE=Hush - Dark Horse
DYEAR=2011
DGENRE=Country
TTITLE0=Do what you love to do
TTITLE1=Can I come home now
TTITLE2=It's about Love
TTITLE3=Wilder Girl
TTITLE4=Dark Horse
TTITLE5=Missing You
TTITLE6=Same old different story
TTITLE7=Me and my broken heart
TTITLE8=What if I told you
TTITLE9=Look for America
TTITLE10=Patience
TTITLE11=We can go so far
TTITLE12=All at sea in the dark
EXTD=
EXTT0=
EXTT1=
EXTT2=
EXTT3=
EXTT4=
EXTT5=
EXTT6=
EXTT7=
EXTT8=
EXTT9=
EXTT10=
EXTT11=
EXTT12=
PLAYORDER=
